<?xml version="1.0" encoding="utf-8"?>
<!-- Generator: Adobe Illustrator 19.1.0, SVG Export Plug-In . SVG Version: 6.00 Build 0)  -->
<svg version="1.1" id="Layer_1" xmlns="http://www.w3.org/2000/svg" xmlns:xlink="http://www.w3.org/1999/xlink" x="0px" y="0px"
	 viewBox="0 0 272.3 72.3" style="enable-background:new 0 0 272.3 72.3;" xml:space="preserve">
<style type="text/css">
	.st0{fill:url(#SVGID_1_);}
	.st1{fill:url(#SVGID_2_);}
	.st2{fill:url(#SVGID_3_);}
	.st3{fill:url(#SVGID_4_);}
	.st4{fill:url(#SVGID_5_);}
	.st5{fill:url(#SVGID_6_);}
	.st6{fill:url(#SVGID_7_);}
	.st7{fill:url(#SVGID_8_);}
	.st8{fill:url(#SVGID_9_);}
	.st9{fill:url(#SVGID_10_);}
	.st10{fill:url(#SVGID_11_);}
	.st11{fill:url(#SVGID_12_);}
</style>
<g>
	<linearGradient id="SVGID_1_" gradientUnits="userSpaceOnUse" x1="12.2266" y1="35.7102" x2="65.2758" y2="35.7102">
		<stop  offset="0" style="stop-color:#333D5B"/>
		<stop  offset="0.9941" style="stop-color:#3D3A46"/>
	</linearGradient>
	<path class="st0" d="M56.6,60.4H20.9c-4.8,0-8.7-3.9-8.7-8.7V19.7c0-4.8,3.9-8.7,8.7-8.7h35.7c4.8,0,8.7,3.9,8.7,8.7v32.1
		C65.3,56.5,61.4,60.4,56.6,60.4z M20.9,12.8c-3.8,0-6.8,3.1-6.8,6.8v32.1c0,3.8,3.1,6.8,6.8,6.8h35.7c3.8,0,6.8-3.1,6.8-6.8V19.7
		c0-3.8-3.1-6.8-6.8-6.8H20.9z"/>
</g>
<linearGradient id="SVGID_2_" gradientUnits="userSpaceOnUse" x1="20.9987" y1="35.8488" x2="40.7682" y2="35.8488">
	<stop  offset="0" style="stop-color:#333D5B"/>
	<stop  offset="0.9941" style="stop-color:#3D3A46"/>
</linearGradient>
<path class="st1" d="M40.8,46c0,1.1-0.3,2-0.9,2.8c-0.6,0.8-1.5,1.5-2.6,2.1c-0.9,0.5-1.9,0.8-2.9,1c-1,0.2-2.2,0.3-3.4,0.3
	c-1.2,0-2.4-0.1-3.4-0.3c-1-0.2-2-0.6-2.9-1c-1.2-0.6-2.1-1.3-2.7-2.1C21.3,48,21,47,21,46V19.4h7.7v26.7c0,0.7,0.2,1.2,0.6,1.5
	c0.4,0.3,0.9,0.5,1.7,0.5c0.7,0,1.3-0.2,1.7-0.5c0.4-0.3,0.5-0.8,0.5-1.5V19.4h7.7V46z"/>
<linearGradient id="SVGID_3_" gradientUnits="userSpaceOnUse" x1="44.2759" y1="35.6685" x2="56.5027" y2="35.6685">
	<stop  offset="0" style="stop-color:#333D5B"/>
	<stop  offset="0.9941" style="stop-color:#3D3A46"/>
</linearGradient>
<path class="st2" d="M56.5,52.2h-7.9V25.7c0-1-0.2-1.7-0.6-2.2c-0.4-0.5-1.1-0.7-2-0.7h-1.7v-3.7h6.3c2,0,3.4,0.6,4.4,1.8
	c1,1.2,1.5,3,1.5,5.4V52.2z"/>
<g>
	<linearGradient id="SVGID_4_" gradientUnits="userSpaceOnUse" x1="75.0756" y1="37.1806" x2="92.1756" y2="37.1806">
		<stop  offset="0" style="stop-color:#333D5B"/>
		<stop  offset="0.9941" style="stop-color:#3D3A46"/>
	</linearGradient>
	<path class="st3" d="M77.2,26.1V40c0,4.1,1.8,6.5,5.7,6.5c2.8,0,5.3-1.5,7.3-4.1V26.1h2.1v21.7H91c-0.4,0-0.6-0.2-0.6-0.6l-0.2-3.2
		c-2,2.5-4.7,4.1-7.9,4.1c-4.8,0-7.2-3.1-7.2-8.2V26.1H77.2z"/>
	<linearGradient id="SVGID_5_" gradientUnits="userSpaceOnUse" x1="99.2515" y1="36.82" x2="111.7221" y2="36.82">
		<stop  offset="0" style="stop-color:#333D5B"/>
		<stop  offset="0.9941" style="stop-color:#3D3A46"/>
	</linearGradient>
	<path class="st4" d="M99.3,47.9V26.1h1.1c0.5,0,0.7,0.2,0.7,0.7l0.2,4.6c1.4-3.5,3.7-5.6,7.1-5.6c1.3,0,2.4,0.3,3.4,0.8l-0.3,1.4
		c0,0.2-0.2,0.3-0.4,0.3c-0.3,0-1.2-0.6-3.1-0.6c-3.3,0-5.3,2.1-6.6,5.9v14.1H99.3z"/>
	<linearGradient id="SVGID_6_" gradientUnits="userSpaceOnUse" x1="116.8104" y1="32.1246" x2="135.0026" y2="32.1246">
		<stop  offset="0" style="stop-color:#333D5B"/>
		<stop  offset="0.9941" style="stop-color:#3D3A46"/>
	</linearGradient>
	<path class="st5" d="M116.8,47.9V16.1h2.1v13.8c1.9-2.6,4.5-4.1,7.6-4.1c5.3,0,8.5,3.7,8.5,11.1c0,6.4-3.4,11.3-9.5,11.3
		c-3,0-5.2-1.2-6.7-3.5l-0.1,2.7c0,0.4-0.2,0.5-0.6,0.5H116.8z M118.9,31.7v11.5c1.7,2.5,3.6,3.4,6.2,3.4c5.1,0,7.7-3.9,7.7-9.7
		c0-6.5-2.5-9.4-6.9-9.4C123.1,27.5,120.7,29,118.9,31.7z"/>
	<linearGradient id="SVGID_7_" gradientUnits="userSpaceOnUse" x1="139.2399" y1="36.9949" x2="155.1389" y2="36.9949">
		<stop  offset="0" style="stop-color:#333D5B"/>
		<stop  offset="0.9941" style="stop-color:#3D3A46"/>
	</linearGradient>
	<path class="st6" d="M154.3,47.9c-0.4,0-0.7-0.2-0.8-0.6l-0.3-2.8c-2.4,2.3-4.6,3.7-8.1,3.7c-3,0-5.8-1.7-5.8-5.6
		c0-3.7,4-6.4,13.9-6.6v-2.3c0-4-1.7-6.3-5.2-6.3c-4.2,0-5.7,2.8-6.6,2.8c-0.3,0-0.5-0.1-0.7-0.4l-0.4-0.6c2.3-2.3,4.7-3.5,7.8-3.5
		c4.7,0,7,3.1,7,7.9v14.2H154.3z M153.1,43v-5.7c-8.3,0.2-11.9,2.1-11.9,5.1c0,2.9,2.1,4.2,4.3,4.2C149,46.7,151.1,45.1,153.1,43z"
		/>
	<linearGradient id="SVGID_8_" gradientUnits="userSpaceOnUse" x1="161.6912" y1="36.8308" x2="178.7695" y2="36.8308">
		<stop  offset="0" style="stop-color:#333D5B"/>
		<stop  offset="0.9941" style="stop-color:#3D3A46"/>
	</linearGradient>
	<path class="st7" d="M161.7,47.9V26.1h1.1c0.4,0,0.6,0.2,0.7,0.5l0.2,3.3c2-2.5,4.6-4.2,7.9-4.2c4.8,0,7.2,3.1,7.2,8.2v13.9h-2.1
		V34c0-4.1-1.8-6.5-5.7-6.5c-2.9,0-5.3,1.6-7.3,4.1v16.3H161.7z"/>
	<linearGradient id="SVGID_9_" gradientUnits="userSpaceOnUse" x1="184.0765" y1="46.1784" x2="188.1169" y2="46.1784">
		<stop  offset="0" style="stop-color:#333D5B"/>
		<stop  offset="0.9941" style="stop-color:#3D3A46"/>
	</linearGradient>
	<path class="st8" d="M186.1,44.2c1.1,0,2,0.9,2,2c0,1.1-0.9,2-2,2c-1.1,0-2-0.9-2-2C184.1,45.1,184.9,44.2,186.1,44.2z"/>
	<linearGradient id="SVGID_10_" gradientUnits="userSpaceOnUse" x1="192.3097" y1="36.9728" x2="212.1183" y2="36.9728">
		<stop  offset="0" style="stop-color:#333D5B"/>
		<stop  offset="0.9941" style="stop-color:#3D3A46"/>
	</linearGradient>
	<path class="st9" d="M212.1,37c0,6.8-3.6,11.2-9.9,11.2c-6.2,0-9.9-4.4-9.9-11.2c0-6.8,3.7-11.2,9.9-11.2
		C208.5,25.8,212.1,30.2,212.1,37z M210,37c0-5.8-2.6-9.6-7.8-9.6c-5.2,0-7.8,3.8-7.8,9.6c0,5.8,2.6,9.5,7.8,9.5
		C207.4,46.5,210,42.8,210,37z"/>
	<linearGradient id="SVGID_11_" gradientUnits="userSpaceOnUse" x1="217.5781" y1="36.8308" x2="234.6564" y2="36.8308">
		<stop  offset="0" style="stop-color:#333D5B"/>
		<stop  offset="0.9941" style="stop-color:#3D3A46"/>
	</linearGradient>
	<path class="st10" d="M217.6,47.9V26.1h1.1c0.4,0,0.6,0.2,0.7,0.5l0.2,3.3c2-2.5,4.6-4.2,7.9-4.2c4.8,0,7.2,3.1,7.2,8.2v13.9h-2.1
		V34c0-4.1-1.8-6.5-5.7-6.5c-2.9,0-5.3,1.6-7.3,4.1v16.3H217.6z"/>
	<linearGradient id="SVGID_12_" gradientUnits="userSpaceOnUse" x1="239.5923" y1="36.9728" x2="257.9373" y2="36.9728">
		<stop  offset="0" style="stop-color:#333D5B"/>
		<stop  offset="0.9941" style="stop-color:#3D3A46"/>
	</linearGradient>
	<path class="st11" d="M257.9,35.3c0,0.6-0.2,0.8-0.6,0.8h-15.7v0.4c0,6.5,3.1,9.9,8,9.9c4.4,0,6.3-2.3,6.9-2.3
		c0.2,0,0.3,0.1,0.4,0.2l0.6,0.7c-1.4,1.7-4.7,3.1-8,3.1c-6,0-9.9-4.2-9.9-11.6c0-6.2,3.6-10.8,9.8-10.8
		C254.3,25.8,257.9,29.2,257.9,35.3z M241.7,34.8h14.3c0-4.7-2.7-7.5-6.6-7.5C245,27.3,242.3,30.3,241.7,34.8z"/>
</g>
</svg>
